<svg height="512" viewBox="0 0 64 64" width="512" xmlns="http://www.w3.org/2000/svg"><g id="flat"><path d="m47.979 33h-9.958a4.021 4.021 0 0 1 -4.021-4.021v-15.979h18v16a4 4 0 0 1 -4.021 4z" fill="#ffd782"/><g fill="#394d5c"><path d="m52 13h-18v-8l14 2a5.035 5.035 0 0 1 4 5z"/><path d="m37 16h2v2h-2z"/><path d="m47 16h2v2h-2z"/></g><path d="m34 25a4 4 0 0 1 0-8z" fill="#f9bb4b"/><path d="m52 17a4 4 0 0 1 0 8z" fill="#f9bb4b"/><path d="m31 37h24v22h-24z" fill="#394d5c"/><path d="m55 37h6a0 0 0 0 1 0 0v14a0 0 0 0 1 0 0h-3a3 3 0 0 1 -3-3v-11a0 0 0 0 1 0 0z" fill="#5f79ba" transform="matrix(-1 0 0 -1 116 88)"/><path d="m55 51h6v8h-6z" fill="#ffd782" transform="matrix(-1 0 0 -1 116 110)"/><path d="m28 37h3a0 0 0 0 1 0 0v14a0 0 0 0 1 0 0h-6a0 0 0 0 1 0 0v-11a3 3 0 0 1 3-3z" fill="#5f79ba"/><path d="m42 19h2v4h-2z" fill="#394d5c"/><path d="m3 35h22v20h-22z" fill="#394d5c"/><path d="m3 55h28v4h-28z" fill="#143441"/><path d="m25 51h6v4h-6z" fill="#ffd782"/><path d="m43 30a5.006 5.006 0 0 1 -5-5h2a3 3 0 0 0 6 0h2a5.006 5.006 0 0 1 -5 5z" fill="#394d5c"/><path d="m37 37v7l6-3 6 3v-7z" fill="#5f79ba"/><path d="m8 50h12v2h-12z" fill="#f4f4e6"/><path d="m12 42h4v2h-4z" fill="#f4f4e6"/><path d="m22 20a6 6 0 0 0 -12 0c0 2.088.382 2.925 2 4v7h8v-7c1.618-1.075 2-1.912 2-4z" fill="#fcf05a"/><path d="m12 27h8v4h-8z" fill="#4f97d5"/><path d="m6 8.172h2v5.657h-2z" fill="#e4544f" transform="matrix(.707 -.707 .707 .707 -5.728 8.172)"/><path d="m15 5h2v6h-2z" fill="#e4544f"/><path d="m22.172 10h5.657v2h-5.657z" fill="#e4544f" transform="matrix(.707 -.707 .707 .707 -.456 20.899)"/><path d="m18.707 19.707-1.414-1.414-1.293 1.293-1.293-1.293-1.414 1.414 1.707 1.707v5.586h2v-5.586z" fill="#f9bb4b"/></g></svg>