<svg height="512" viewBox="0 0 58 58" width="512" xmlns="http://www.w3.org/2000/svg"><g id="004---Money-Off" fill="none"><rect id="Rectangle-path" fill="#24ae5f" height="30" rx="2" width="58" y=".13"/><path id="Shape" d="m49 27.13h-40c-.55228475 0-1-.4477153-1-1 0-2.209139-1.790861-4-4-4-.55228475 0-1-.4477153-1-1v-12c0-.55228475.44771525-1 1-1 2.209139 0 4-1.790861 4-4 0-.55228475.44771525-1 1-1h40c.5522847 0 1 .44771525 1 1 0 2.209139 1.790861 4 4 4 .5522847 0 1 .44771525 1 1v12c0 .5522847-.4477153 1-1 1-2.209139 0-4 1.790861-4 4 0 .5522847-.4477153 1-1 1zm-39.08-2h38.16c.4245846-2.520571 2.399429-4.4954154 4.92-4.92v-10.21c-2.5175546-.42331376-4.4915649-2.39331192-4.92-4.91h-38.16c-.42843507 2.51668808-2.40244544 4.48668624-4.92 4.91v10.21c2.520571.4245846 4.49541544 2.399429 4.92 4.92z" fill="#7ed09e"/><circle id="Oval" cx="29" cy="15.13" fill="#7ed09e" r="11"/><g fill="#4c8056"><path id="Shape" d="m29 16.13c-2.209139 0-4-1.790861-4-4s1.790861-4 4-4 4 1.790861 4 4c0 .5522847-.4477153 1-1 1s-1-.4477153-1-1c0-1.1045695-.8954305-2-2-2s-2 .8954305-2 2 .8954305 2 2 2c.3572656 0 .6873926.1905989.8660254.5s.1786328.6905989 0 1-.5087598.5-.8660254.5z"/><path id="Shape" d="m29 22.13c-2.209139 0-4-1.790861-4-4 0-.5522847.4477153-1 1-1s1 .4477153 1 1c0 1.1045695.8954305 2 2 2s2-.8954305 2-2-.8954305-2-2-2c-.5522847 0-1-.4477153-1-1s.4477153-1 1-1c2.209139 0 4 1.790861 4 4s-1.790861 4-4 4z"/><path id="Shape" d="m29 10.13c-.5522847 0-1-.44771525-1-1v-2c0-.55228475.4477153-1 1-1s1 .44771525 1 1v2c0 .55228475-.4477153 1-1 1z"/><path id="Shape" d="m29 24.13c-.5522847 0-1-.4477153-1-1v-2c0-.5522847.4477153-1 1-1s1 .4477153 1 1v2c0 .5522847-.4477153 1-1 1z"/></g><rect id="Rectangle-path" fill="#e64c3c" height="7" rx=".5" width="10" x="8" y="34.13"/><rect id="Rectangle-path" fill="#e64c3c" height="11" rx=".5" width="10" x="24" y="34.13"/><path id="Shape" d="m44.63 57.71-6.89-7.71c-.1289507-.1467574-.1606165-.3551764-.0810734-.533611s.2557244-.2941989.4510734-.296389h1.39c.2761424 0 .5-.2238576.5-.5v-14c0-.2761424.2238576-.5.5-.5h9c.2761424 0 .5.2238576.5.5v14c0 .2761424.2238576.5.5.5h1.39c.195349.0021901.3715303.1179544.4510734.296389s.0478773.3868536-.0810734.533611l-6.89 7.75c-.100291.0993483-.2379056.1516719-.3788677.1440523s-.2721347-.0744721-.3611323-.1840523z" fill="#e64c3c"/></g></svg>