<svg id="flat" height="512" viewBox="0 0 512 512" width="512" xmlns="http://www.w3.org/2000/svg"><path d="m272 320-40 8v-72l-69.24169-31.4735a32 32 0 0 1 -18.75831-29.13172v-19.39478h88v36l22.31083 11.15542a32 32 0 0 1 17.68917 28.62167z" fill="#445496"/><path d="m176 72h24v24h-24z" fill="#ffbfa1"/><path d="m360 100a28.97493 28.97493 0 0 1 -8.49 20.49l-36.2 36.2a38.62742 38.62742 0 0 1 -54.62 0l-28.69-28.69v48h-88v-48h-32l-24 40v18.34a5.65681 5.65681 0 0 1 -9.66 4l-6.34-6.34-16 16-9.22-9.22a23.14817 23.14817 0 0 1 -3.48-28.28l35.38-58.96a31.99747 31.99747 0 0 1 27.44-15.54h128.63a31.99526 31.99526 0 0 1 22.62 9.37l30.63 30.63 24-24v-12.69a8 8 0 0 1 13.66-5.65l2.34 2.34 16-16 7.51 7.51a28.94217 28.94217 0 0 1 8.49 20.49z" fill="#ffceb6"/><path d="m496 224h-122.74517a32 32 0 0 0 -22.62741 9.37258l-78.62742 78.62742v112h224z" fill="#207868"/><path d="m496 328h-26.74517a32 32 0 0 0 -22.62741 9.37258l-78.62742 78.62742v72h128z" fill="#308c72"/><rect fill="#2c3e91" height="26.833" rx="8" transform="matrix(.447 -.894 .894 .447 -62.639 310.648)" width="16" x="212" y="192.584"/><path d="m80 288 58.3133 14.57832a47.61534 47.61534 0 0 0 11.54842 1.42168 47.61534 47.61534 0 0 0 40.17128-22.05184l25.967-40.8053-48-17.14286-16 40-72-12z" fill="#445496"/><path d="m272 320 24 16v16h-64v-24z" fill="#6d7eb3"/><path d="m276 116-28 28-16-16v48h-88v-48h-16v-40h106.75a31.99526 31.99526 0 0 1 22.62 9.37z" fill="#ed6445"/><path d="m80 252-24-4-16 56 16 8 24-24z" fill="#6d7eb3"/><path d="m24 488 126.62742-126.62742a32 32 0 0 1 22.62741-9.37258h149.49034a32 32 0 0 1 22.62741 9.37258l126.62742 126.62742z" fill="#51a37e"/><path d="m392 224 24-32h32l24 32z" fill="#f7c04a"/><path d="m432 24h56l-16 24 16 24h-56z" fill="#ed6445"/><path d="m424 24h16v168h-16z" fill="#f7dfa1"/><path d="m200 112 8 24-16 16-16-16 8-24z" fill="#f7c04a"/><path d="m184 112-8-16 16-8 16 8-8 16z" fill="#f5a431"/><path d="m208 40v32a16 16 0 0 1 -16 16 16 16 0 0 1 -16-16v-32z" fill="#ffceb6"/><path d="m176 64-5.95016-11.90031a19.41651 19.41651 0 0 1 -2.04984-8.68328 19.41638 19.41638 0 0 1 19.41639-19.41641h36.58361v9.37262a22.62741 22.62741 0 0 1 -22.62741 22.62738 22.6274 22.6274 0 0 1 -16-6.62741l-1.37259-1.37259z" fill="#b36f42"/><path d="m224 112a7.99994 7.99994 0 0 1 -11.2 1.6l-20.8-15.6-20.8 15.6a8 8 0 0 1 -9.6-12.8l17.07-12.8h26.66l17.07 12.8a8.0055 8.0055 0 0 1 1.6 11.2z" fill="#de402f"/><path d="m189.636 211.896a7.99985 7.99985 0 0 1 7.99985 7.99985v33.69558a7.99984 7.99984 0 0 1 -7.99984 7.99984 7.99985 7.99985 0 0 1 -7.99985-7.99985v-33.69556a7.99985 7.99985 0 0 1 7.99984-7.99986z" fill="#2c3e91" transform="matrix(.414 -.91 .91 .414 -104.36 311.414)"/></svg>