<svg enable-background="new 0 0 32 32" height="512" viewBox="0 0 32 32" width="512" xmlns="http://www.w3.org/2000/svg"><g id="BG"><path d="m26 32h-20c-3.314 0-6-2.686-6-6v-20c0-3.314 2.686-6 6-6h20c3.314 0 6 2.686 6 6v20c0 3.314-2.686 6-6 6z" fill="#e3f8fa"/></g><g id="Layer_1"><path d="m16.008 8.667c-3.825 0-6.962 2.929-7.3 6.667h5.966v-2c0-.27.162-.513.411-.616s.536-.046.727.145l2.667 2.667c.26.26.26.682 0 .943l-2.667 2.667c-.191.191-.477.248-.727.145-.249-.103-.411-.346-.411-.616v-2h-5.965c.337 3.737 3.475 6.667 7.3 6.667 4.05 0 7.333-3.283 7.333-7.333s-3.283-7.336-7.334-7.336z" fill="#26c6da"/></g></svg>