<svg height="512" viewBox="0 0 512 512" width="512" xmlns="http://www.w3.org/2000/svg"><g id="Flat"><path d="m342.86 472h-173.72l24-56 13.72-32h98.28l13.72 32z" fill="#abbac2"/><rect fill="#ccdce5" height="32" rx="16" width="272" x="120" y="456"/><path d="m318.86 416h-125.72l13.72-32h98.28z" fill="#798b9b"/><rect fill="#0093ba" height="312" rx="32" width="400" x="56" y="88"/><path d="m424 400h-336a32 32 0 0 1 -32-32v-32h400v32a32 32 0 0 1 -32 32z" fill="#ccdce5"/><path d="m248 360h16v16h-16z" fill="#abbac2"/><path d="m466.617 119.6 19.236-16.5c-4.779-12.426-4.791-12.458-9.571-24.884l-25.332.646-14.468-15.218 1.938-25.266-24.363-10.829-17.457 18.37-21-.536-16.5-19.237-24.884 9.572.646 25.332-15.218 14.468-25.266-1.938c-5.407 12.166-5.421 12.2-10.829 24.363l18.37 17.456c-.214 8.382-.322 12.616-.536 21l-19.236 16.5c4.779 12.426 4.791 12.458 9.571 24.884l25.332-.646 14.468 15.226-1.938 25.266 24.363 10.829 17.456-18.37 21 .536 16.5 19.237 24.884-9.572-.646-25.332 15.226-14.468 25.266 1.938c5.407-12.166 5.421-12.2 10.829-24.363l-18.377-17.464c.219-8.381.319-12.615.536-21zm-65.048 54.075a48.941 48.941 0 1 1 28.11-63.248 48.941 48.941 0 0 1 -28.11 63.252z" fill="#ffc119"/><g fill="#88bf40"><path d="m114.343 181.657-24-24a8 8 0 0 1 0-11.314l24-24 11.314 11.314-18.344 18.343 18.344 18.343z"/><path d="m189.657 181.657-11.314-11.314 18.344-18.343-18.344-18.343 11.314-11.314 24 24a8 8 0 0 1 0 11.314z"/><path d="m119.015 144h65.97v16h-65.97z" transform="matrix(.243 -.97 .97 .243 -32.329 262.594)"/><path d="m88 200h16v16h-16z"/><path d="m120 200h152v16h-152z"/><path d="m88 232h16v16h-16z"/><path d="m120 232h176v16h-176z"/><path d="m88 264h16v16h-16z"/><path d="m120 264h200v16h-200z"/><path d="m88 296h16v16h-16z"/><path d="m120 296h240v16h-240z"/><path d="m376 296h16v16h-16z"/><path d="m368 264h16v16h-16z"/><path d="m336 264h16v16h-16z"/><path d="m408 296h16v16h-16z"/></g></g></svg>