<?xml version="1.0"?>
<svg xmlns="http://www.w3.org/2000/svg" viewBox="0 0 64 64" width="512" height="512"><g id="flat"><rect x="3" y="3" width="58" height="58" style="fill:#7fcac9"/><rect x="3" y="3" width="16" height="8" style="fill:#ffd782"/><rect x="19" y="3" width="42" height="8" style="fill:#3b73a5"/><rect x="6" y="6" width="2" height="2" style="fill:#3b73a5"/><rect x="10" y="6" width="2" height="2" style="fill:#3b73a5"/><rect x="14" y="6" width="2" height="2" style="fill:#3b73a5"/><path d="M18,26l3-3-4-4-3,3a18.58,18.58,0,0,0-7-3V15H3V57H7V53a18.58,18.58,0,0,0,7-3l3,3,4-4-3-3a18.58,18.58,0,0,0,3-7h4V33H21A18.58,18.58,0,0,0,18,26Z" style="fill:#3b73a5"/><path d="M4,24c-.338,0-.669.023-1,.05v23.9c.331.027.662.05,1,.05A12,12,0,0,0,4,24Z" style="fill:#d1f5c9"/><path d="M4,28a8.047,8.047,0,0,0-1,.069V43.931A8.047,8.047,0,0,0,4,44,8,8,0,0,0,4,28Z" style="fill:#3b73a5"/><rect x="29" y="33" width="28" height="6" style="fill:#d1f5c9"/><rect x="29" y="23" width="28" height="6" style="fill:#d1f5c9"/><rect x="29" y="43" width="28" height="6" style="fill:#d1f5c9"/><rect x="38" y="18" width="10" height="2" style="fill:#ffd782"/><rect x="38" y="52" width="2" height="2" style="fill:#ffd782"/><rect x="42" y="52" width="2" height="2" style="fill:#ffd782"/><rect x="46" y="52" width="2" height="2" style="fill:#ffd782"/></g></svg>
